<mxfile host="app.diagrams.net" modified="2023-04-11T19:19:13.486Z" agent="5.0 (X11)" etag="SLpHrWqR6QDJFKxMLI5f" version="20.8.16" type="github">
  <diagram name="Page-1" id="jWL4H5GWRWFEMTrIt_fe">
    <mxGraphModel dx="2425" dy="2404" grid="0" gridSize="10" guides="1" tooltips="1" connect="1" arrows="1" fold="1" page="0" pageScale="1" pageWidth="850" pageHeight="1100" math="0" shadow="0">
      <root>
        <mxCell id="0" />
        <mxCell id="1" parent="0" />
        <mxCell id="l8kAq1uLgbvHiUrE_Mqz-3" value="" style="points=[];aspect=fixed;html=1;align=center;shadow=0;dashed=0;image;image=img/lib/allied_telesis/buildings/Building_Cluster.svg;fontSize=16;" vertex="1" parent="1">
          <mxGeometry x="2255" y="-1012" width="330.84" height="303" as="geometry" />
        </mxCell>
        <mxCell id="l8kAq1uLgbvHiUrE_Mqz-4" value="ICON" style="ellipse;shape=cloud;whiteSpace=wrap;html=1;fontSize=16;fillColor=#ffe6cc;strokeColor=#d79b00;" vertex="1" parent="1">
          <mxGeometry x="1935" y="-1148" width="120" height="80" as="geometry" />
        </mxCell>
        <mxCell id="l8kAq1uLgbvHiUrE_Mqz-5" value="Internetwork" style="ellipse;shape=cloud;whiteSpace=wrap;html=1;fontSize=16;fillColor=#ffe6cc;strokeColor=#d79b00;" vertex="1" parent="1">
          <mxGeometry x="1930" y="-1027" width="120" height="80" as="geometry" />
        </mxCell>
        <mxCell id="l8kAq1uLgbvHiUrE_Mqz-6" value="" style="endArrow=classic;html=1;rounded=0;fontSize=12;startSize=8;endSize=8;curved=1;" edge="1" parent="1" source="l8kAq1uLgbvHiUrE_Mqz-4" target="l8kAq1uLgbvHiUrE_Mqz-3">
          <mxGeometry width="50" height="50" relative="1" as="geometry">
            <mxPoint x="2164" y="-679" as="sourcePoint" />
            <mxPoint x="2214" y="-729" as="targetPoint" />
          </mxGeometry>
        </mxCell>
        <mxCell id="l8kAq1uLgbvHiUrE_Mqz-7" value="" style="endArrow=classic;html=1;rounded=0;fontSize=12;startSize=8;endSize=8;curved=1;exitX=0.96;exitY=0.7;exitDx=0;exitDy=0;exitPerimeter=0;" edge="1" parent="1" source="l8kAq1uLgbvHiUrE_Mqz-5">
          <mxGeometry width="50" height="50" relative="1" as="geometry">
            <mxPoint x="2164" y="-679" as="sourcePoint" />
            <mxPoint x="2254" y="-955" as="targetPoint" />
          </mxGeometry>
        </mxCell>
        <mxCell id="l8kAq1uLgbvHiUrE_Mqz-8" value="POP PURWAKARTA &lt;br&gt;Rumah Pak Farid" style="text;html=1;align=center;verticalAlign=middle;resizable=0;points=[];autosize=1;strokeColor=#6c8ebf;fillColor=#dae8fc;fontSize=16;" vertex="1" parent="1">
          <mxGeometry x="2294" y="-1107" width="167" height="50" as="geometry" />
        </mxCell>
        <mxCell id="l8kAq1uLgbvHiUrE_Mqz-21" style="edgeStyle=none;orthogonalLoop=1;jettySize=auto;html=1;entryX=0.5;entryY=0.15;entryDx=0;entryDy=0;entryPerimeter=0;fontSize=12;curved=1;dashed=1;shape=link;exitX=0.5;exitY=0.15;exitDx=0;exitDy=0;exitPerimeter=0;" edge="1" parent="1" source="l8kAq1uLgbvHiUrE_Mqz-9" target="l8kAq1uLgbvHiUrE_Mqz-20">
          <mxGeometry relative="1" as="geometry" />
        </mxCell>
        <mxCell id="l8kAq1uLgbvHiUrE_Mqz-9" value="" style="fontColor=#0066CC;verticalAlign=top;verticalLabelPosition=bottom;labelPosition=center;align=center;html=1;outlineConnect=0;fillColor=#CCCCCC;strokeColor=#6881B3;gradientColor=none;gradientDirection=north;strokeWidth=2;shape=mxgraph.networks.radio_tower;fontSize=16;" vertex="1" parent="1">
          <mxGeometry x="2062" y="-682" width="100" height="225" as="geometry" />
        </mxCell>
        <mxCell id="l8kAq1uLgbvHiUrE_Mqz-118" style="edgeStyle=none;shape=link;curved=1;orthogonalLoop=1;jettySize=auto;html=1;entryX=0.5;entryY=0.15;entryDx=0;entryDy=0;entryPerimeter=0;fontSize=12;dashed=1;exitX=0.5;exitY=0.15;exitDx=0;exitDy=0;exitPerimeter=0;" edge="1" parent="1" source="l8kAq1uLgbvHiUrE_Mqz-10" target="l8kAq1uLgbvHiUrE_Mqz-109">
          <mxGeometry relative="1" as="geometry" />
        </mxCell>
        <mxCell id="l8kAq1uLgbvHiUrE_Mqz-10" value="" style="fontColor=#0066CC;verticalAlign=top;verticalLabelPosition=bottom;labelPosition=center;align=center;html=1;outlineConnect=0;fillColor=#CCCCCC;strokeColor=#6881B3;gradientColor=none;gradientDirection=north;strokeWidth=2;shape=mxgraph.networks.radio_tower;fontSize=16;" vertex="1" parent="1">
          <mxGeometry x="2220" y="-696" width="100" height="225" as="geometry" />
        </mxCell>
        <mxCell id="l8kAq1uLgbvHiUrE_Mqz-11" value="" style="fontColor=#0066CC;verticalAlign=top;verticalLabelPosition=bottom;labelPosition=center;align=center;html=1;outlineConnect=0;fillColor=#CCCCCC;strokeColor=#6881B3;gradientColor=none;gradientDirection=north;strokeWidth=2;shape=mxgraph.networks.radio_tower;fontSize=16;" vertex="1" parent="1">
          <mxGeometry x="2394" y="-703" width="100" height="225" as="geometry" />
        </mxCell>
        <mxCell id="l8kAq1uLgbvHiUrE_Mqz-13" value="" style="fontColor=#0066CC;verticalAlign=top;verticalLabelPosition=bottom;labelPosition=center;align=center;html=1;outlineConnect=0;fillColor=#CCCCCC;strokeColor=#6881B3;gradientColor=none;gradientDirection=north;strokeWidth=2;shape=mxgraph.networks.radio_tower;fontSize=16;" vertex="1" parent="1">
          <mxGeometry x="2547" y="-706" width="100" height="225" as="geometry" />
        </mxCell>
        <mxCell id="l8kAq1uLgbvHiUrE_Mqz-19" value="" style="edgeStyle=none;curved=1;rounded=0;orthogonalLoop=1;jettySize=auto;html=1;fontSize=12;startSize=8;endSize=8;" edge="1" parent="1" source="l8kAq1uLgbvHiUrE_Mqz-14" target="l8kAq1uLgbvHiUrE_Mqz-18">
          <mxGeometry relative="1" as="geometry" />
        </mxCell>
        <mxCell id="l8kAq1uLgbvHiUrE_Mqz-14" value="" style="outlineConnect=0;dashed=0;verticalLabelPosition=bottom;verticalAlign=top;align=center;html=1;shape=mxgraph.aws3.router;fillColor=#F58534;gradientColor=none;fontSize=16;" vertex="1" parent="1">
          <mxGeometry x="2831" y="-1068" width="69" height="72" as="geometry" />
        </mxCell>
        <mxCell id="l8kAq1uLgbvHiUrE_Mqz-17" value="" style="edgeStyle=none;curved=1;rounded=0;orthogonalLoop=1;jettySize=auto;html=1;fontSize=12;startSize=8;endSize=8;" edge="1" parent="1" source="l8kAq1uLgbvHiUrE_Mqz-15" target="l8kAq1uLgbvHiUrE_Mqz-16">
          <mxGeometry relative="1" as="geometry" />
        </mxCell>
        <mxCell id="l8kAq1uLgbvHiUrE_Mqz-15" value="" style="points=[];aspect=fixed;html=1;align=center;shadow=0;dashed=0;image;image=img/lib/allied_telesis/switch/Switch_24_port_L2.svg;fontSize=16;" vertex="1" parent="1">
          <mxGeometry x="2829" y="-991.5" width="74.4" height="51" as="geometry" />
        </mxCell>
        <mxCell id="l8kAq1uLgbvHiUrE_Mqz-16" value="SW.SKY.C3750E" style="whiteSpace=wrap;html=1;fontSize=16;verticalAlign=top;shadow=0;dashed=0;labelBackgroundColor=default;fillColor=#dae8fc;strokeColor=#6c8ebf;" vertex="1" parent="1">
          <mxGeometry x="3000.6" y="-996" width="120" height="60" as="geometry" />
        </mxCell>
        <mxCell id="l8kAq1uLgbvHiUrE_Mqz-18" value="RB 3011UAS" style="whiteSpace=wrap;html=1;fontSize=16;verticalAlign=top;fillColor=#dae8fc;dashed=0;strokeColor=#6c8ebf;" vertex="1" parent="1">
          <mxGeometry x="2994.5" y="-1062" width="123.5" height="60" as="geometry" />
        </mxCell>
        <mxCell id="l8kAq1uLgbvHiUrE_Mqz-23" value="" style="edgeStyle=none;curved=1;rounded=0;orthogonalLoop=1;jettySize=auto;html=1;fontSize=12;shape=flexArrow;" edge="1" parent="1" source="l8kAq1uLgbvHiUrE_Mqz-20" target="l8kAq1uLgbvHiUrE_Mqz-22">
          <mxGeometry relative="1" as="geometry" />
        </mxCell>
        <mxCell id="l8kAq1uLgbvHiUrE_Mqz-27" value="" style="edgeStyle=none;curved=1;orthogonalLoop=1;jettySize=auto;html=1;fontSize=12;" edge="1" parent="1" source="l8kAq1uLgbvHiUrE_Mqz-20" target="l8kAq1uLgbvHiUrE_Mqz-25">
          <mxGeometry relative="1" as="geometry" />
        </mxCell>
        <mxCell id="l8kAq1uLgbvHiUrE_Mqz-20" value="" style="fontColor=#0066CC;verticalAlign=top;verticalLabelPosition=bottom;labelPosition=center;align=center;html=1;outlineConnect=0;fillColor=#CCCCCC;strokeColor=#6881B3;gradientColor=none;gradientDirection=north;strokeWidth=2;shape=mxgraph.networks.radio_tower;fontSize=16;" vertex="1" parent="1">
          <mxGeometry x="836" y="-373" width="100" height="225" as="geometry" />
        </mxCell>
        <mxCell id="l8kAq1uLgbvHiUrE_Mqz-22" value="DAKSINA SINARGALIH&lt;br&gt;AKIM" style="whiteSpace=wrap;html=1;fontSize=16;verticalAlign=top;fillColor=#ffe6cc;strokeColor=#d79b00;gradientDirection=north;strokeWidth=2;" vertex="1" parent="1">
          <mxGeometry x="823" y="-549" width="118" height="68" as="geometry" />
        </mxCell>
        <mxCell id="l8kAq1uLgbvHiUrE_Mqz-24" value="snrgrh@akim" style="aspect=fixed;perimeter=ellipsePerimeter;html=1;align=center;shadow=0;dashed=0;spacingTop=3;image;image=img/lib/active_directory/home.svg;fontSize=16;" vertex="1" parent="1">
          <mxGeometry x="1185" y="-110" width="50" height="48.5" as="geometry" />
        </mxCell>
        <mxCell id="l8kAq1uLgbvHiUrE_Mqz-29" value="" style="edgeStyle=none;curved=1;orthogonalLoop=1;jettySize=auto;html=1;fontSize=12;" edge="1" parent="1" source="l8kAq1uLgbvHiUrE_Mqz-25">
          <mxGeometry relative="1" as="geometry">
            <mxPoint x="1017.5999999999999" y="-89.95002562788318" as="targetPoint" />
          </mxGeometry>
        </mxCell>
        <mxCell id="l8kAq1uLgbvHiUrE_Mqz-42" style="edgeStyle=none;curved=1;orthogonalLoop=1;jettySize=auto;html=1;fontSize=12;" edge="1" parent="1" source="l8kAq1uLgbvHiUrE_Mqz-25" target="l8kAq1uLgbvHiUrE_Mqz-24">
          <mxGeometry relative="1" as="geometry" />
        </mxCell>
        <mxCell id="l8kAq1uLgbvHiUrE_Mqz-50" style="edgeStyle=none;curved=1;orthogonalLoop=1;jettySize=auto;html=1;fontSize=12;" edge="1" parent="1" source="l8kAq1uLgbvHiUrE_Mqz-25" target="l8kAq1uLgbvHiUrE_Mqz-31">
          <mxGeometry relative="1" as="geometry" />
        </mxCell>
        <mxCell id="l8kAq1uLgbvHiUrE_Mqz-62" style="edgeStyle=none;curved=1;orthogonalLoop=1;jettySize=auto;html=1;fontSize=12;" edge="1" parent="1" source="l8kAq1uLgbvHiUrE_Mqz-31" target="l8kAq1uLgbvHiUrE_Mqz-61">
          <mxGeometry relative="1" as="geometry" />
        </mxCell>
        <mxCell id="l8kAq1uLgbvHiUrE_Mqz-25" value=" TL-SG1016DE" style="points=[];aspect=fixed;html=1;align=center;shadow=0;dashed=0;image;image=img/lib/allied_telesis/switch/Switch_24_port_L2.svg;fontSize=16;" vertex="1" parent="1">
          <mxGeometry x="846" y="-117" width="74.4" height="51" as="geometry" />
        </mxCell>
        <mxCell id="l8kAq1uLgbvHiUrE_Mqz-30" value="Port 1 Up Radio&lt;br&gt;Port 2 Akim&lt;br&gt;Port 5 &amp;amp; 14?" style="rounded=0;whiteSpace=wrap;html=1;fontSize=16;fillColor=#ffe6cc;strokeColor=#d79b00;" vertex="1" parent="1">
          <mxGeometry x="1017" y="-121.5" width="120" height="60" as="geometry" />
        </mxCell>
        <mxCell id="l8kAq1uLgbvHiUrE_Mqz-38" style="edgeStyle=none;curved=1;orthogonalLoop=1;jettySize=auto;html=1;fontSize=12;" edge="1" parent="1" source="l8kAq1uLgbvHiUrE_Mqz-31" target="l8kAq1uLgbvHiUrE_Mqz-32">
          <mxGeometry relative="1" as="geometry" />
        </mxCell>
        <mxCell id="l8kAq1uLgbvHiUrE_Mqz-39" style="edgeStyle=none;curved=1;orthogonalLoop=1;jettySize=auto;html=1;fontSize=12;" edge="1" parent="1" source="l8kAq1uLgbvHiUrE_Mqz-31" target="l8kAq1uLgbvHiUrE_Mqz-33">
          <mxGeometry relative="1" as="geometry" />
        </mxCell>
        <mxCell id="l8kAq1uLgbvHiUrE_Mqz-40" style="edgeStyle=none;curved=1;orthogonalLoop=1;jettySize=auto;html=1;fontSize=12;" edge="1" parent="1" source="l8kAq1uLgbvHiUrE_Mqz-31" target="l8kAq1uLgbvHiUrE_Mqz-35">
          <mxGeometry relative="1" as="geometry" />
        </mxCell>
        <mxCell id="l8kAq1uLgbvHiUrE_Mqz-41" style="edgeStyle=none;curved=1;orthogonalLoop=1;jettySize=auto;html=1;entryX=0.75;entryY=1;entryDx=0;entryDy=0;fontSize=12;" edge="1" parent="1" source="l8kAq1uLgbvHiUrE_Mqz-31" target="l8kAq1uLgbvHiUrE_Mqz-34">
          <mxGeometry relative="1" as="geometry" />
        </mxCell>
        <mxCell id="l8kAq1uLgbvHiUrE_Mqz-31" value="&lt;div&gt;MC 6 Port&lt;/div&gt;&lt;div&gt;Akim&lt;br&gt;&lt;/div&gt;" style="points=[];aspect=fixed;html=1;align=center;shadow=0;dashed=0;image;image=img/lib/allied_telesis/switch/Switch_48_port_L2_POE.svg;fontSize=16;" vertex="1" parent="1">
          <mxGeometry x="844.2" y="-10" width="78" height="52.8" as="geometry" />
        </mxCell>
        <mxCell id="l8kAq1uLgbvHiUrE_Mqz-32" value="givael01cjaha" style="aspect=fixed;perimeter=ellipsePerimeter;html=1;align=center;shadow=0;dashed=0;spacingTop=3;image;image=img/lib/active_directory/home.svg;fontSize=16;" vertex="1" parent="1">
          <mxGeometry x="690" y="83" width="50" height="48.5" as="geometry" />
        </mxCell>
        <mxCell id="l8kAq1uLgbvHiUrE_Mqz-33" value="psragn02sulaemi" style="aspect=fixed;perimeter=ellipsePerimeter;html=1;align=center;shadow=0;dashed=0;spacingTop=3;image;image=img/lib/active_directory/home.svg;fontSize=16;" vertex="1" parent="1">
          <mxGeometry x="813" y="79" width="50" height="48.5" as="geometry" />
        </mxCell>
        <mxCell id="l8kAq1uLgbvHiUrE_Mqz-52" style="edgeStyle=none;curved=1;orthogonalLoop=1;jettySize=auto;html=1;fontSize=12;entryX=0.5;entryY=0;entryDx=0;entryDy=0;" edge="1" parent="1" source="l8kAq1uLgbvHiUrE_Mqz-34" target="l8kAq1uLgbvHiUrE_Mqz-51">
          <mxGeometry relative="1" as="geometry">
            <mxPoint x="938" y="197" as="targetPoint" />
          </mxGeometry>
        </mxCell>
        <mxCell id="l8kAq1uLgbvHiUrE_Mqz-34" value="psragn02feri" style="aspect=fixed;perimeter=ellipsePerimeter;html=1;align=center;shadow=0;dashed=0;spacingTop=3;image;image=img/lib/active_directory/home.svg;fontSize=16;" vertex="1" parent="1">
          <mxGeometry x="929" y="76" width="50" height="48.5" as="geometry" />
        </mxCell>
        <mxCell id="l8kAq1uLgbvHiUrE_Mqz-49" style="edgeStyle=none;curved=1;orthogonalLoop=1;jettySize=auto;html=1;fontSize=12;" edge="1" parent="1" source="l8kAq1uLgbvHiUrE_Mqz-35" target="l8kAq1uLgbvHiUrE_Mqz-45">
          <mxGeometry relative="1" as="geometry" />
        </mxCell>
        <mxCell id="l8kAq1uLgbvHiUrE_Mqz-35" value="lilisrat028" style="aspect=fixed;perimeter=ellipsePerimeter;html=1;align=center;shadow=0;dashed=0;spacingTop=3;image;image=img/lib/active_directory/home.svg;fontSize=16;" vertex="1" parent="1">
          <mxGeometry x="1022" y="76" width="50" height="48.5" as="geometry" />
        </mxCell>
        <mxCell id="l8kAq1uLgbvHiUrE_Mqz-47" style="edgeStyle=none;curved=1;orthogonalLoop=1;jettySize=auto;html=1;fontSize=12;" edge="1" parent="1" source="l8kAq1uLgbvHiUrE_Mqz-43" target="l8kAq1uLgbvHiUrE_Mqz-45">
          <mxGeometry relative="1" as="geometry" />
        </mxCell>
        <mxCell id="l8kAq1uLgbvHiUrE_Mqz-43" value="nanasur01snrglh" style="aspect=fixed;perimeter=ellipsePerimeter;html=1;align=center;shadow=0;dashed=0;spacingTop=3;image;image=img/lib/active_directory/home.svg;fontSize=16;" vertex="1" parent="1">
          <mxGeometry x="1171" y="200.14999999999998" width="50" height="48.5" as="geometry" />
        </mxCell>
        <mxCell id="l8kAq1uLgbvHiUrE_Mqz-48" style="edgeStyle=none;curved=1;orthogonalLoop=1;jettySize=auto;html=1;fontSize=12;" edge="1" parent="1" source="l8kAq1uLgbvHiUrE_Mqz-45" target="l8kAq1uLgbvHiUrE_Mqz-46">
          <mxGeometry relative="1" as="geometry" />
        </mxCell>
        <mxCell id="l8kAq1uLgbvHiUrE_Mqz-45" value="&lt;div&gt;MC 6 Port&lt;/div&gt;&lt;div&gt;Nana&lt;br&gt;&lt;/div&gt;" style="points=[];aspect=fixed;html=1;align=center;shadow=0;dashed=0;image;image=img/lib/allied_telesis/switch/Switch_48_port_L2_POE.svg;fontSize=16;" vertex="1" parent="1">
          <mxGeometry x="1012" y="198" width="78" height="52.8" as="geometry" />
        </mxCell>
        <mxCell id="l8kAq1uLgbvHiUrE_Mqz-46" value="ria06snrglh" style="aspect=fixed;perimeter=ellipsePerimeter;html=1;align=center;shadow=0;dashed=0;spacingTop=3;image;image=img/lib/active_directory/home.svg;fontSize=16;" vertex="1" parent="1">
          <mxGeometry x="1026" y="328" width="50" height="48.5" as="geometry" />
        </mxCell>
        <mxCell id="l8kAq1uLgbvHiUrE_Mqz-56" style="edgeStyle=none;curved=1;orthogonalLoop=1;jettySize=auto;html=1;fontSize=12;" edge="1" parent="1" source="l8kAq1uLgbvHiUrE_Mqz-51" target="l8kAq1uLgbvHiUrE_Mqz-55">
          <mxGeometry relative="1" as="geometry" />
        </mxCell>
        <mxCell id="l8kAq1uLgbvHiUrE_Mqz-51" value="cjh01sarjiyem" style="aspect=fixed;perimeter=ellipsePerimeter;html=1;align=center;shadow=0;dashed=0;spacingTop=3;image;image=img/lib/active_directory/home.svg;fontSize=16;" vertex="1" parent="1">
          <mxGeometry x="929" y="202.3" width="50" height="48.5" as="geometry" />
        </mxCell>
        <mxCell id="l8kAq1uLgbvHiUrE_Mqz-58" style="edgeStyle=none;curved=1;orthogonalLoop=1;jettySize=auto;html=1;fontSize=12;" edge="1" parent="1" source="l8kAq1uLgbvHiUrE_Mqz-55" target="l8kAq1uLgbvHiUrE_Mqz-57">
          <mxGeometry relative="1" as="geometry" />
        </mxCell>
        <mxCell id="l8kAq1uLgbvHiUrE_Mqz-60" style="edgeStyle=none;curved=1;orthogonalLoop=1;jettySize=auto;html=1;entryX=0.5;entryY=0;entryDx=0;entryDy=0;fontSize=12;" edge="1" parent="1" source="l8kAq1uLgbvHiUrE_Mqz-55" target="l8kAq1uLgbvHiUrE_Mqz-59">
          <mxGeometry relative="1" as="geometry" />
        </mxCell>
        <mxCell id="l8kAq1uLgbvHiUrE_Mqz-55" value="&lt;div&gt;MC 6 Port&lt;/div&gt;&lt;div&gt;Elin&lt;br&gt;&lt;/div&gt;" style="points=[];aspect=fixed;html=1;align=center;shadow=0;dashed=0;image;image=img/lib/allied_telesis/switch/Switch_48_port_L2_POE.svg;fontSize=16;" vertex="1" parent="1">
          <mxGeometry x="910" y="318" width="78" height="52.8" as="geometry" />
        </mxCell>
        <mxCell id="l8kAq1uLgbvHiUrE_Mqz-57" value="cjh01elin" style="aspect=fixed;perimeter=ellipsePerimeter;html=1;align=center;shadow=0;dashed=0;spacingTop=3;image;image=img/lib/active_directory/home.svg;fontSize=16;" vertex="1" parent="1">
          <mxGeometry x="818" y="318" width="50" height="48.5" as="geometry" />
        </mxCell>
        <mxCell id="l8kAq1uLgbvHiUrE_Mqz-59" value="solahudin011ctmng&lt;br&gt;MTS ASSARIBIYAH" style="aspect=fixed;perimeter=ellipsePerimeter;html=1;align=center;shadow=0;dashed=0;spacingTop=3;image;image=img/lib/active_directory/home.svg;fontSize=16;" vertex="1" parent="1">
          <mxGeometry x="929" y="448" width="50" height="48.5" as="geometry" />
        </mxCell>
        <mxCell id="l8kAq1uLgbvHiUrE_Mqz-64" style="edgeStyle=none;curved=1;orthogonalLoop=1;jettySize=auto;html=1;fontSize=12;" edge="1" parent="1" source="l8kAq1uLgbvHiUrE_Mqz-61" target="l8kAq1uLgbvHiUrE_Mqz-63">
          <mxGeometry relative="1" as="geometry" />
        </mxCell>
        <mxCell id="l8kAq1uLgbvHiUrE_Mqz-66" style="edgeStyle=none;curved=1;orthogonalLoop=1;jettySize=auto;html=1;fontSize=12;" edge="1" parent="1" source="l8kAq1uLgbvHiUrE_Mqz-61" target="l8kAq1uLgbvHiUrE_Mqz-75">
          <mxGeometry relative="1" as="geometry" />
        </mxCell>
        <mxCell id="l8kAq1uLgbvHiUrE_Mqz-71" style="edgeStyle=none;curved=1;orthogonalLoop=1;jettySize=auto;html=1;fontSize=12;" edge="1" parent="1" source="l8kAq1uLgbvHiUrE_Mqz-61" target="l8kAq1uLgbvHiUrE_Mqz-86">
          <mxGeometry relative="1" as="geometry">
            <mxPoint x="311.9095970697158" y="154.0808058605685" as="targetPoint" />
          </mxGeometry>
        </mxCell>
        <mxCell id="l8kAq1uLgbvHiUrE_Mqz-73" style="edgeStyle=none;curved=1;orthogonalLoop=1;jettySize=auto;html=1;fontSize=12;" edge="1" parent="1" source="l8kAq1uLgbvHiUrE_Mqz-61" target="l8kAq1uLgbvHiUrE_Mqz-69">
          <mxGeometry relative="1" as="geometry" />
        </mxCell>
        <mxCell id="l8kAq1uLgbvHiUrE_Mqz-74" style="edgeStyle=none;curved=1;orthogonalLoop=1;jettySize=auto;html=1;fontSize=12;" edge="1" parent="1" source="l8kAq1uLgbvHiUrE_Mqz-61" target="l8kAq1uLgbvHiUrE_Mqz-70">
          <mxGeometry relative="1" as="geometry" />
        </mxCell>
        <mxCell id="l8kAq1uLgbvHiUrE_Mqz-101" style="edgeStyle=none;curved=1;orthogonalLoop=1;jettySize=auto;html=1;fontSize=12;" edge="1" parent="1" source="l8kAq1uLgbvHiUrE_Mqz-61" target="l8kAq1uLgbvHiUrE_Mqz-100">
          <mxGeometry relative="1" as="geometry" />
        </mxCell>
        <mxCell id="l8kAq1uLgbvHiUrE_Mqz-61" value="&lt;div&gt;MC 6 Port&lt;/div&gt;&lt;div&gt;Agus Mahardika&lt;br&gt;&lt;/div&gt;" style="points=[];aspect=fixed;html=1;align=center;shadow=0;dashed=0;image;image=img/lib/allied_telesis/switch/Switch_48_port_L2_POE.svg;fontSize=16;" vertex="1" parent="1">
          <mxGeometry x="359.00000000000006" y="9.449999999999996" width="78" height="52.8" as="geometry" />
        </mxCell>
        <mxCell id="l8kAq1uLgbvHiUrE_Mqz-63" value="cjh01agus" style="aspect=fixed;perimeter=ellipsePerimeter;html=1;align=center;shadow=0;dashed=0;spacingTop=3;image;image=img/lib/active_directory/home.svg;fontSize=16;" vertex="1" parent="1">
          <mxGeometry x="259" y="9.449999999999996" width="50" height="48.5" as="geometry" />
        </mxCell>
        <mxCell id="l8kAq1uLgbvHiUrE_Mqz-65" value="cjh01anwar" style="aspect=fixed;perimeter=ellipsePerimeter;html=1;align=center;shadow=0;dashed=0;spacingTop=3;image;image=img/lib/active_directory/home.svg;fontSize=16;" vertex="1" parent="1">
          <mxGeometry x="3" y="139.3" width="50" height="48.5" as="geometry" />
        </mxCell>
        <mxCell id="l8kAq1uLgbvHiUrE_Mqz-68" value="cjh01aidah" style="aspect=fixed;perimeter=ellipsePerimeter;html=1;align=center;shadow=0;dashed=0;spacingTop=3;image;image=img/lib/active_directory/home.svg;fontSize=16;" vertex="1" parent="1">
          <mxGeometry x="558" y="339.35" width="50" height="48.5" as="geometry" />
        </mxCell>
        <mxCell id="l8kAq1uLgbvHiUrE_Mqz-69" value="dely01cjh" style="aspect=fixed;perimeter=ellipsePerimeter;html=1;align=center;shadow=0;dashed=0;spacingTop=3;image;image=img/lib/active_directory/home.svg;fontSize=16;" vertex="1" parent="1">
          <mxGeometry x="476" y="131.5" width="50" height="48.5" as="geometry" />
        </mxCell>
        <mxCell id="l8kAq1uLgbvHiUrE_Mqz-70" value="cjh01deni" style="aspect=fixed;perimeter=ellipsePerimeter;html=1;align=center;shadow=0;dashed=0;spacingTop=3;image;image=img/lib/active_directory/home.svg;fontSize=16;" vertex="1" parent="1">
          <mxGeometry x="554" y="131.5" width="50" height="48.5" as="geometry" />
        </mxCell>
        <mxCell id="l8kAq1uLgbvHiUrE_Mqz-76" style="edgeStyle=none;curved=1;orthogonalLoop=1;jettySize=auto;html=1;fontSize=12;" edge="1" parent="1" source="l8kAq1uLgbvHiUrE_Mqz-75" target="l8kAq1uLgbvHiUrE_Mqz-65">
          <mxGeometry relative="1" as="geometry" />
        </mxCell>
        <mxCell id="l8kAq1uLgbvHiUrE_Mqz-81" style="edgeStyle=none;curved=1;orthogonalLoop=1;jettySize=auto;html=1;entryX=1;entryY=0;entryDx=0;entryDy=0;fontSize=12;" edge="1" parent="1" source="l8kAq1uLgbvHiUrE_Mqz-75" target="l8kAq1uLgbvHiUrE_Mqz-77">
          <mxGeometry relative="1" as="geometry" />
        </mxCell>
        <mxCell id="l8kAq1uLgbvHiUrE_Mqz-82" style="edgeStyle=none;curved=1;orthogonalLoop=1;jettySize=auto;html=1;entryX=0.75;entryY=0;entryDx=0;entryDy=0;fontSize=12;" edge="1" parent="1" source="l8kAq1uLgbvHiUrE_Mqz-75" target="l8kAq1uLgbvHiUrE_Mqz-78">
          <mxGeometry relative="1" as="geometry" />
        </mxCell>
        <mxCell id="l8kAq1uLgbvHiUrE_Mqz-83" style="edgeStyle=none;curved=1;orthogonalLoop=1;jettySize=auto;html=1;entryX=0.5;entryY=0;entryDx=0;entryDy=0;fontSize=12;" edge="1" parent="1" source="l8kAq1uLgbvHiUrE_Mqz-75" target="l8kAq1uLgbvHiUrE_Mqz-79">
          <mxGeometry relative="1" as="geometry" />
        </mxCell>
        <mxCell id="l8kAq1uLgbvHiUrE_Mqz-99" value="" style="edgeStyle=none;curved=1;orthogonalLoop=1;jettySize=auto;html=1;fontSize=12;" edge="1" parent="1" source="l8kAq1uLgbvHiUrE_Mqz-75" target="l8kAq1uLgbvHiUrE_Mqz-79">
          <mxGeometry relative="1" as="geometry" />
        </mxCell>
        <mxCell id="l8kAq1uLgbvHiUrE_Mqz-75" value="&lt;div&gt;MC&lt;br&gt;&lt;/div&gt;&lt;div&gt;Anwar&lt;br&gt;&lt;/div&gt;" style="points=[];aspect=fixed;html=1;align=center;shadow=0;dashed=0;image;image=img/lib/allied_telesis/switch/Switch_48_port_L2_POE.svg;fontSize=16;" vertex="1" parent="1">
          <mxGeometry x="125.00000000000006" y="135" width="78" height="52.8" as="geometry" />
        </mxCell>
        <mxCell id="l8kAq1uLgbvHiUrE_Mqz-77" value="&lt;div&gt;cjh01tini&lt;/div&gt;&lt;div&gt;&lt;br&gt;&lt;/div&gt;" style="aspect=fixed;perimeter=ellipsePerimeter;html=1;align=center;shadow=0;dashed=0;spacingTop=3;image;image=img/lib/active_directory/home.svg;fontSize=16;" vertex="1" parent="1">
          <mxGeometry x="-24" y="273" width="50" height="48.5" as="geometry" />
        </mxCell>
        <mxCell id="l8kAq1uLgbvHiUrE_Mqz-78" value="titi02snrglh" style="aspect=fixed;perimeter=ellipsePerimeter;html=1;align=center;shadow=0;dashed=0;spacingTop=3;image;image=img/lib/active_directory/home.svg;fontSize=16;" vertex="1" parent="1">
          <mxGeometry x="53" y="270" width="50" height="48.5" as="geometry" />
        </mxCell>
        <mxCell id="l8kAq1uLgbvHiUrE_Mqz-79" value="aguskus003chj" style="aspect=fixed;perimeter=ellipsePerimeter;html=1;align=center;shadow=0;dashed=0;spacingTop=3;image;image=img/lib/active_directory/home.svg;fontSize=16;" vertex="1" parent="1">
          <mxGeometry x="150" y="268" width="50" height="48.5" as="geometry" />
        </mxCell>
        <mxCell id="l8kAq1uLgbvHiUrE_Mqz-88" style="edgeStyle=none;curved=1;orthogonalLoop=1;jettySize=auto;html=1;fontSize=12;" edge="1" parent="1" source="l8kAq1uLgbvHiUrE_Mqz-86" target="l8kAq1uLgbvHiUrE_Mqz-87">
          <mxGeometry relative="1" as="geometry" />
        </mxCell>
        <mxCell id="l8kAq1uLgbvHiUrE_Mqz-94" style="edgeStyle=none;curved=1;orthogonalLoop=1;jettySize=auto;html=1;fontSize=12;" edge="1" parent="1" source="l8kAq1uLgbvHiUrE_Mqz-86" target="l8kAq1uLgbvHiUrE_Mqz-93">
          <mxGeometry relative="1" as="geometry" />
        </mxCell>
        <mxCell id="l8kAq1uLgbvHiUrE_Mqz-96" style="edgeStyle=none;curved=1;orthogonalLoop=1;jettySize=auto;html=1;fontSize=12;" edge="1" parent="1" source="l8kAq1uLgbvHiUrE_Mqz-86" target="l8kAq1uLgbvHiUrE_Mqz-95">
          <mxGeometry relative="1" as="geometry" />
        </mxCell>
        <mxCell id="l8kAq1uLgbvHiUrE_Mqz-86" value="&lt;div&gt;MC &lt;br&gt;&lt;/div&gt;&lt;div&gt;Ikbal&lt;br&gt;&lt;/div&gt;" style="points=[];aspect=fixed;html=1;align=center;shadow=0;dashed=0;image;image=img/lib/allied_telesis/switch/Switch_48_port_L2_POE.svg;fontSize=16;" vertex="1" parent="1">
          <mxGeometry x="247.00000000000006" y="265.2" width="78" height="52.8" as="geometry" />
        </mxCell>
        <mxCell id="l8kAq1uLgbvHiUrE_Mqz-87" value="cjh01ikbal" style="aspect=fixed;perimeter=ellipsePerimeter;html=1;align=center;shadow=0;dashed=0;spacingTop=3;image;image=img/lib/active_directory/home.svg;fontSize=16;" vertex="1" parent="1">
          <mxGeometry x="357" y="269.5" width="50" height="48.5" as="geometry" />
        </mxCell>
        <mxCell id="l8kAq1uLgbvHiUrE_Mqz-93" value="mis03hamidah" style="aspect=fixed;perimeter=ellipsePerimeter;html=1;align=center;shadow=0;dashed=0;spacingTop=3;image;image=img/lib/active_directory/home.svg;fontSize=16;" vertex="1" parent="1">
          <mxGeometry x="203" y="394" width="50" height="48.5" as="geometry" />
        </mxCell>
        <mxCell id="l8kAq1uLgbvHiUrE_Mqz-95" value="ucu01cjh" style="aspect=fixed;perimeter=ellipsePerimeter;html=1;align=center;shadow=0;dashed=0;spacingTop=3;image;image=img/lib/active_directory/home.svg;fontSize=16;" vertex="1" parent="1">
          <mxGeometry x="319" y="390" width="50" height="48.5" as="geometry" />
        </mxCell>
        <mxCell id="l8kAq1uLgbvHiUrE_Mqz-102" style="edgeStyle=none;curved=1;orthogonalLoop=1;jettySize=auto;html=1;fontSize=12;" edge="1" parent="1" source="l8kAq1uLgbvHiUrE_Mqz-100" target="l8kAq1uLgbvHiUrE_Mqz-68">
          <mxGeometry relative="1" as="geometry" />
        </mxCell>
        <mxCell id="l8kAq1uLgbvHiUrE_Mqz-106" style="edgeStyle=none;curved=1;orthogonalLoop=1;jettySize=auto;html=1;fontSize=12;" edge="1" parent="1" source="l8kAq1uLgbvHiUrE_Mqz-100" target="l8kAq1uLgbvHiUrE_Mqz-103">
          <mxGeometry relative="1" as="geometry" />
        </mxCell>
        <mxCell id="l8kAq1uLgbvHiUrE_Mqz-107" style="edgeStyle=none;curved=1;orthogonalLoop=1;jettySize=auto;html=1;fontSize=12;" edge="1" parent="1" source="l8kAq1uLgbvHiUrE_Mqz-100" target="l8kAq1uLgbvHiUrE_Mqz-104">
          <mxGeometry relative="1" as="geometry" />
        </mxCell>
        <mxCell id="l8kAq1uLgbvHiUrE_Mqz-108" style="edgeStyle=none;curved=1;orthogonalLoop=1;jettySize=auto;html=1;fontSize=12;" edge="1" parent="1" source="l8kAq1uLgbvHiUrE_Mqz-100" target="l8kAq1uLgbvHiUrE_Mqz-105">
          <mxGeometry relative="1" as="geometry" />
        </mxCell>
        <mxCell id="l8kAq1uLgbvHiUrE_Mqz-100" value="&lt;div&gt;MC &lt;br&gt;&lt;/div&gt;&lt;div&gt;aidah&lt;br&gt;&lt;/div&gt;" style="points=[];aspect=fixed;html=1;align=center;shadow=0;dashed=0;image;image=img/lib/allied_telesis/switch/Switch_48_port_L2_POE.svg;fontSize=16;" vertex="1" parent="1">
          <mxGeometry x="430.00000000000006" y="337.2" width="78" height="52.8" as="geometry" />
        </mxCell>
        <mxCell id="l8kAq1uLgbvHiUrE_Mqz-103" value="maulana01cjh" style="aspect=fixed;perimeter=ellipsePerimeter;html=1;align=center;shadow=0;dashed=0;spacingTop=3;image;image=img/lib/active_directory/home.svg;fontSize=16;" vertex="1" parent="1">
          <mxGeometry x="355" y="510" width="50" height="48.5" as="geometry" />
        </mxCell>
        <mxCell id="l8kAq1uLgbvHiUrE_Mqz-104" value="psragn02asria" style="aspect=fixed;perimeter=ellipsePerimeter;html=1;align=center;shadow=0;dashed=0;spacingTop=3;image;image=img/lib/active_directory/home.svg;fontSize=16;" vertex="1" parent="1">
          <mxGeometry x="472" y="510" width="50" height="48.5" as="geometry" />
        </mxCell>
        <mxCell id="l8kAq1uLgbvHiUrE_Mqz-105" value="doni01cjh" style="aspect=fixed;perimeter=ellipsePerimeter;html=1;align=center;shadow=0;dashed=0;spacingTop=3;image;image=img/lib/active_directory/home.svg;fontSize=16;" vertex="1" parent="1">
          <mxGeometry x="589" y="507" width="50" height="48.5" as="geometry" />
        </mxCell>
        <mxCell id="l8kAq1uLgbvHiUrE_Mqz-112" style="edgeStyle=none;curved=1;orthogonalLoop=1;jettySize=auto;html=1;fontSize=12;shape=flexArrow;" edge="1" parent="1" source="l8kAq1uLgbvHiUrE_Mqz-109" target="l8kAq1uLgbvHiUrE_Mqz-111">
          <mxGeometry relative="1" as="geometry" />
        </mxCell>
        <mxCell id="l8kAq1uLgbvHiUrE_Mqz-109" value="" style="fontColor=#0066CC;verticalAlign=top;verticalLabelPosition=bottom;labelPosition=center;align=center;html=1;outlineConnect=0;fillColor=#CCCCCC;strokeColor=#6881B3;gradientColor=none;gradientDirection=north;strokeWidth=2;shape=mxgraph.networks.radio_tower;fontSize=16;" vertex="1" parent="1">
          <mxGeometry x="1780" y="-316" width="100" height="225" as="geometry" />
        </mxCell>
        <mxCell id="l8kAq1uLgbvHiUrE_Mqz-111" value="DAKSINA KP MANIIS&lt;br&gt;YANA" style="whiteSpace=wrap;html=1;fontSize=16;verticalAlign=top;fillColor=#ffe6cc;strokeColor=#d79b00;gradientDirection=north;strokeWidth=2;" vertex="1" parent="1">
          <mxGeometry x="1773" y="-485" width="118" height="68" as="geometry" />
        </mxCell>
        <mxCell id="l8kAq1uLgbvHiUrE_Mqz-119" value=" TL-SG1016DE" style="points=[];aspect=fixed;html=1;align=center;shadow=0;dashed=0;image;image=img/lib/allied_telesis/switch/Switch_24_port_L2.svg;fontSize=16;" vertex="1" parent="1">
          <mxGeometry x="1791" y="-51" width="74.4" height="51" as="geometry" />
        </mxCell>
        <mxCell id="l8kAq1uLgbvHiUrE_Mqz-120" value="Port 1 Up Radio&lt;br&gt;Port 2 Akim&lt;br&gt;Port 5 &amp;amp; 14?" style="rounded=0;whiteSpace=wrap;html=1;fontSize=16;fillColor=#ffe6cc;strokeColor=#d79b00;" vertex="1" parent="1">
          <mxGeometry x="1947" y="-55.5" width="120" height="60" as="geometry" />
        </mxCell>
      </root>
    </mxGraphModel>
  </diagram>
</mxfile>
